<svg width="192" height="192" viewBox="0 0 192 192" fill="none" xmlns="http://www.w3.org/2000/svg">
<rect width="192" height="192" rx="48" fill="black"/>
<g clip-path="url(#clip0_2892_27)">
<path fill-rule="evenodd" clip-rule="evenodd" d="M51.5902 144H48V47.9998H51.5902C51.5677 48.5891 51.5553 49.1817 51.5553 49.7777C51.5553 74.308 71.4707 94.2225 95.9994 94.2225C120.529 94.2225 140.445 74.308 140.445 49.7777C140.445 49.1817 140.432 48.5891 140.41 47.9998H144V144H140.41C140.432 143.41 140.445 142.818 140.445 142.222C140.445 117.693 120.529 97.7785 95.9994 97.7785C71.4707 97.7785 51.5553 117.693 51.5553 142.222C51.5553 142.818 51.5677 143.41 51.5902 144Z" fill="white"/>
</g>
<defs>
<clipPath id="clip0_2892_27">
<rect width="96" height="96" fill="white" transform="translate(48 48)"/>
</clipPath>
</defs>
</svg>
