<svg width="600" height="600" viewBox="0 0 600 600" fill="none" xmlns="http://www.w3.org/2000/svg">
<rect width="600" height="600" rx="12" fill="white"/>
<g clip-path="url(#clip0_2755_7145)">
<path d="M190.75 185C190.75 244.879 238.889 293.486 298.588 294.241L300 294.25V305.75C240.122 305.75 191.515 353.91 190.759 413.588L190.75 415H179.25V185H190.75Z" fill="black" stroke="black" stroke-width="11.5"/>
<path d="M420.75 185V415H409.25C409.25 354.673 360.327 305.75 300 305.75V294.25L301.412 294.241C361.09 293.485 409.25 244.878 409.25 185H420.75Z" fill="black" stroke="black" stroke-width="11.5"/>
</g>
<path fill-rule="evenodd" clip-rule="evenodd" d="M486.845 185C507.326 185 522.547 201.358 522.547 223.262C522.547 245.312 507.326 261.667 486.845 261.667C466.218 261.667 451 245.312 451 223.262C451 201.358 466.218 185 486.845 185ZM486.845 257.401C504.766 257.401 517.995 242.892 517.995 223.262C517.995 203.775 504.766 189.269 486.845 189.269C468.921 189.269 455.552 203.775 455.552 223.262C455.552 242.892 468.921 257.401 486.845 257.401ZM497.797 230.377C503.911 242.466 505.334 243.746 508.18 244.315V246.02C505.62 246.306 503.2 246.306 501.92 246.306C496.799 246.306 495.376 244.457 487.696 227.245C486.845 225.253 486.133 224.828 484.281 224.828H482.15V236.917C482.15 241.755 482.433 244.315 486.559 244.315V246.02H469.775V244.315C473.758 244.315 473.898 241.755 473.898 236.917V209.75C473.898 204.915 473.758 202.355 469.775 202.355V200.646H487.127C497.228 200.646 503.06 204.916 503.06 212.31C503.06 218.002 499.077 222.268 492.959 223.973C494.525 225.114 496.231 227.245 497.797 230.377ZM482.15 205.627V221.842H486.273C491.965 221.842 494.808 219.708 494.808 213.022C494.808 206.335 491.536 203.635 485.847 203.635H483.999C482.862 203.635 482.15 204.204 482.15 205.627Z" fill="black"/>
<defs>
<clipPath id="clip0_2755_7145">
<rect width="230" height="230" fill="white" transform="translate(185 185)"/>
</clipPath>
</defs>
</svg>
